ply
format ascii 1.0
element vertex 400
property float x
property float y
property float z
property float f_dc_0
property float f_dc_1
property float f_dc_2
property float opacity
property float scale_0
property float scale_1
property float scale_2
property float rot_0
property float rot_1
property float rot_2
property float rot_3
end_header
0.03179991155648049 0.448875 0.0 0.4133062218300577 0.30954528352836297 -0.095314103002986 2.5 -3.0 -3.0 -3.0 1.0 0.0 0.0 0.0
-0.040562724145341525 0.44662500000000005 0.03715877803304237 -0.289299899648444 0.013529665642330223 -0.11407903505950284 2.5 -3.0 -3.0 -3.0 1.0 0.0 0.0 0.0
0.00620097999157998 0.444375 -0.0706569686736136 0.3405583068417271 -0.23602472870528704 -0.028083655017173026 2.5 -3.0 -3.0 -3.0 1.0 0.0 0.0 0.0
0.05099822735758494 0.44212500000000005 0.06651815677981514 0.10005844734603743 0.4897354622344022 0.005624226980868307 2.5 -3.0 -3.0 -3.0 1.0 0.0 0.0 0.0
-0.09346992719047396 0.439875 -0.016533514024776316 -0.2617945867203554 0.3069650449886687 0.14204279601039796 2.5 -3.0 -3.0 -3.0 1.0 0.0 0.0 0.0
0.08843086594696645 0.43762500000000004 -0.05625247837090945 -0.2993923903650713 0.4916955071618881 0.5793425712451837 2.5 -3.0 -3.0 -3.0 1.0 0.0 0.0 0.0
-0.029540881782998914 0.435375 0.10989060778102411 0.3722606831959075 0.4825991405274992 -0.22782291681680084 2.5 -3.0 -3.0 -3.0 1.0 0.0 0.0 0.0
-0.056266034431462615 0.43312500000000004 -0.10833682543049453 0.27579809791215437 0.47860594556159214 0.22078071829852952 2.5 -3.0 -3.0 -3.0 1.0 0.0 0.0 0.0
0.12191917997501157 0.430875 0.04452468898510947 -0.03342874145674397 -0.479158550317961 -0.07899379745545958 2.5 -3.0 -3.0 -3.0 1.0 0.0 0.0 0.0
-0.12667449964089555 0.42862500000000003 0.05228939199999137 0.13306436813256192 0.49561326388547783 0.5599276413249106 2.5 -3.0 -3.0 -3.0 1.0 0.0 0.0 0.0
0.06098724039839288 0.426375 -0.13032619032101195 -0.027588268136739556 0.4383719133259681 -0.2874092275296487 2.5 -3.0 -3.0 -3.0 1.0 0.0 0.0 0.0
0.04501012850135573 0.42412500000000003 0.14349938225404127 0.36603339241562677 0.05843916460270715 -0.5831499598031772 2.5 -3.0 -3.0 -3.0 1.0 0.0 0.0 0.0
-0.1354863414370805 0.421875 -0.07851710424483853 0.2636456236847449 -0.1214117493308775 0.3898139725778796 2.5 -3.0 -3.0 -3.0 1.0 0.0 0.0 0.0
0.15873568362297047 0.419625 -0.034897594755917145 0.201783841478221 -0.5986286168226861 -0.007706560241610427 2.5 -3.0 -3.0 -3.0 1.0 0.0 0.0 0.0
-0.09674851356016843 0.417375 0.13761480479547947 0.441123330591337 -0.3073069477354416 -0.20975476470313192 2.5 -3.0 -3.0 -3.0 1.0 0.0 0.0 0.0
-0.022322138272016928 0.415125 -0.17225840042786003 0.4445654785303855 -0.37071949019713135 0.08101288874480624 2.5 -3.0 -3.0 -3.0 1.0 0.0 0.0 0.0
0.13685771878584244 0.412875 0.11534383028032004 -0.3136608856617358 0.561048300348172 0.36381536313584406 2.5 -3.0 -3.0 -3.0 1.0 0.0 0.0 0.0
-0.18392731869892018 0.410625 0.007605972076326545 -0.06243651427731556 -0.5034650177369575 -0.21593447439294508 2.5 -3.0 -3.0 -3.0 1.0 0.0 0.0 0.0
0.13398537146278727 0.408375 -0.1333333402003374 0.009528771024688697 0.519400589072288 -0.46913058488267556 2.5 -3.0 -3.0 -3.0 1.0 0.0 0.0 0.0
-0.008952384190477367 0.406125 0.19360356193083353 0.061520695308661465 0.24787369184026756 0.05692909359410851 2.5 -3.0 -3.0 -3.0 1.0 0.0 0.0 0.0
-0.127152897628103 0.403875 -0.1523716673131103 0.37736023594960316 0.04834032836438875 0.5566062551685611 2.5 -3.0 -3.0 -3.0 1.0 0.0 0.0 0.0
0.20115867334096335 0.401625 0.027065614988461054 0.12382275355365957 0.10514047701052362 -0.06601316846938059 2.5 -3.0 -3.0 -3.0 1.0 0.0 0.0 0.0
-0.17021603448660555 0.399375 0.11843188328594088 0.11554423389972754 -0.13811862483280746 0.0907812169978662 2.5 -3.0 -3.0 -3.0 1.0 0.0 0.0 0.0
0.04645116390914975 0.39712500000000006 -0.2064800807499001 -0.25160459711669036 -0.3727304057347726 -0.37592456609333386 2.5 -3.0 -3.0 -3.0 1.0 0.0 0.0 0.0
0.10729634922206063 0.394875 0.18724643606386113 0.13532781584232803 0.1879912667875546 -0.028162809588743086 2.5 -3.0 -3.0 -3.0 1.0 0.0 0.0 0.0
-0.20947461070698573 0.39262500000000006 -0.06682811417477502 -0.49221076656528756 0.3091247063597241 0.4521244449873297 2.5 -3.0 -3.0 -3.0 1.0 0.0 0.0 0.0
0.2032060784858391 0.39037499999999997 -0.09388636238244087 0.5080572191355367 0.4109522677682189 0.4778077456294547 2.5 -3.0 -3.0 -3.0 1.0 0.0 0.0 0.0
-0.08791602165580394 0.38812500000000005 0.21007083926908132 0.5076989277842121 0.048719909937665305 -0.13044473971845014 2.5 -3.0 -3.0 -3.0 1.0 0.0 0.0 0.0
-0.07835772178252855 0.385875 -0.2178544280294799 0.2463400798252875 -0.2692390544254474 0.37395445020945417 2.5 -3.0 -3.0 -3.0 1.0 0.0 0.0 0.0
0.2082206775267517 0.38362500000000005 0.10943495248457168 0.41938315822364053 0.47404676091201026 0.10776142023739181 2.5 -3.0 -3.0 -3.0 1.0 0.0 0.0 0.0
-0.23096845108734063 0.381375 0.06088254246756409 0.5397178478785446 0.0956340128947271 -0.059324272042613785 2.5 -3.0 -3.0 -3.0 1.0 0.0 0.0 0.0
0.1311062903231094 0.37912500000000005 -0.20390040464087494 0.19229445434686676 0.5955094072242872 0.5003294615369472 2.5 -3.0 -3.0 -3.0 1.0 0.0 0.0 0.0
0.04164905816910803 0.376875 0.24234395046839166 0.351990100956269 -0.5011524141640231 0.13533972604885464 2.5 -3.0 -3.0 -3.0 1.0 0.0 0.0 0.0
-0.1971112678776159 0.37462500000000004 -0.15265404498629817 -0.016266957636999813 0.15617680849376736 0.41409309080581824 2.5 -3.0 -3.0 -3.0 1.0 0.0 0.0 0.0
0.2517969100767146 0.372375 -0.020860859302024262 -0.3083572535257725 0.27778706494901734 -0.4594388481497784 2.5 -3.0 -3.0 -3.0 1.0 0.0 0.0 0.0
-0.17380648753786343 0.37012500000000004 0.1878797202061748 -0.3354473557586058 0.35349956605269106 -0.20095662093641345 2.5 -3.0 -3.0 -3.0 1.0 0.0 0.0 0.0
0.001264292697340221 0.367875 -0.25916478529880455 0.3790957158403914 -0.47927097574068456 -0.4243698133052354 2.5 -3.0 -3.0 -3.0 1.0 0.0 0.0 0.0
0.17625733965419632 0.36562500000000003 0.19429799173698445 0.23720476822948655 -0.5457191185612652 0.0886392441470003 2.5 -3.0 -3.0 -3.0 1.0 0.0 0.0 0.0
-0.26430769277195126 0.363375 -0.02449597755893414 0.4920192176388476 0.04103756191286876 0.2167069590747078 2.5 -3.0 -3.0 -3.0 1.0 0.0 0.0 0.0
0.21387099513925514 0.36112500000000003 -0.16232046024190755 -0.5679638464053537 0.16199989189374991 0.1276061013050627 2.5 -3.0 -3.0 -3.0 1.0 0.0 0.0 0.0
-0.04859288398338996 0.358875 0.2671094644545131 0.09114353763784888 -0.13054870881260774 -0.155832071597775 2.5 -3.0 -3.0 -3.0 1.0 0.0 0.0 0.0
-0.14616953656298692 0.356625 -0.23227801436201756 0.5766199807767224 -0.556329554866217 -0.5740361881739711 2.5 -3.0 -3.0 -3.0 1.0 0.0 0.0 0.0
0.2674785390679432 0.354375 0.07330477824179513 0.5532375362875334 -0.378033670323074 -0.4513258026906819 2.5 -3.0 -3.0 -3.0 1.0 0.0 0.0 0.0
-0.24928366301350902 0.352125 0.1279282600896585 -0.34730818813602427 0.3608959084250171 0.5243629903734969 2.5 -3.0 -3.0 -3.0 1.0 0.0 0.0 0.0
0.09837462885467997 0.349875 -0.26534867019207764 -0.5726609091976099 -0.0892574016398194 -0.47819973675099625 2.5 -3.0 -3.0 -3.0 1.0 0.0 0.0 0.0
0.10774244347259901 0.347625 0.26466663040427635 -0.2880961322486016 -0.33500487442041915 0.17631086380238706 2.5 -3.0 -3.0 -3.0 1.0 0.0 0.0 0.0
-0.26067943526509585 0.345375 -0.12354084913448955 -0.17964723912416125 -0.3836185181643746 0.004363806251864677 2.5 -3.0 -3.0 -3.0 1.0 0.0 0.0 0.0
0.2782215860796562 0.343125 -0.08577868857892652 -0.5527455514983691 -0.47889451057324006 0.5858821784670013 2.5 -3.0 -3.0 -3.0 1.0 0.0 0.0 0.0
-0.14853962367610124 0.34087500000000004 0.25345653389321454 -0.36077305143952443 -0.16973363842607778 0.2779179674704327 2.5 -3.0 -3.0 -3.0 1.0 0.0 0.0 0.0
-0.062222854229422926 0.338625 -0.2897609804417151 0.40599187823209953 0.5021784743943977 -0.39669047268303875 2.5 -3.0 -3.0 -3.0 1.0 0.0 0.0 0.0
0.2436918674770539 0.33637500000000004 0.1731072878319859 0.20716867628766308 0.5598586836518198 -0.5303388674082016 2.5 -3.0 -3.0 -3.0 1.0 0.0 0.0 0.0
-0.2991167158893248 0.334125 0.03727834023377317 0.21144214115925392 0.4145095124419396 -0.1892249507056992 2.5 -3.0 -3.0 -3.0 1.0 0.0 0.0 0.0
0.19698273134212502 0.33187500000000003 -0.23142339537738224 -0.299175192857866 0.11614967216329321 -0.06922315956110525 2.5 -3.0 -3.0 -3.0 1.0 0.0 0.0 0.0
0.011164205175166288 0.329625 0.3061416663863428 -0.3902166186582706 -0.034049501884454436 -0.10811352521093451 2.5 -3.0 -3.0 -3.0 1.0 0.0 0.0 0.0
-0.21671476577629611 0.327375 -0.21990979893930393 0.08293528742913625 0.010320156075159792 -0.2262647987997518 2.5 -3.0 -3.0 -3.0 1.0 0.0 0.0 0.0
0.3107110264180508 0.325125 0.015886863669124417 -0.17141798089168456 0.4051934092427748 -0.29888080221343555 2.5 -3.0 -3.0 -3.0 1.0 0.0 0.0 0.0
-0.24163966213361854 0.322875 0.1996547221053153 0.07272026262422875 -0.5850764174048227 0.28988925289279627 2.5 -3.0 -3.0 -3.0 1.0 0.0 0.0 0.0
0.04363070895390353 0.320625 -0.31272347307354426 -0.1969001346318473 -0.5451642077179 -0.2629402029379821 2.5 -3.0 -3.0 -3.0 1.0 0.0 0.0 0.0
0.18035628844773985 0.318375 0.2619331376369849 -0.31184351060837523 0.5437552077933586 -0.17732932618139108 2.5 -3.0 -3.0 -3.0 1.0 0.0 0.0 0.0
-0.3121021275978511 0.316125 -0.07181397025575631 -0.25454650217231994 -0.1689585632955044 0.5362870027894693 2.5 -3.0 -3.0 -3.0 1.0 0.0 0.0 0.0
0.2805629291107263 0.313875 -0.15895573970074045 0.16049742269910308 0.14529221474240073 0.2587432203617475 2.5 -3.0 -3.0 -3.0 1.0 0.0 0.0 0.0
-0.10017643848304464 0.311625 0.30879530525552484 -0.13437931762499322 -0.10269841406730325 0.180999434716014 2.5 -3.0 -3.0 -3.0 1.0 0.0 0.0 0.0
-0.13561136451382758 0.309375 -0.29731577016649785 -0.5981709337719358 -0.36922855050638903 -0.1987179712049981 2.5 -3.0 -3.0 -3.0 1.0 0.0 0.0 0.0
0.30277704477575257 0.307125 0.12845347613771274 -0.3127008477768497 0.1648792813551603 -0.14562231561228667 2.5 -3.0 -3.0 -3.0 1.0 0.0 0.0 0.0
-0.3119944478611426 0.304875 0.11050203110721883 0.4505080700556206 0.08178170509223026 -0.10271232397962682 2.5 -3.0 -3.0 -3.0 1.0 0.0 0.0 0.0
0.15637848139123192 0.302625 -0.29404741102885457 -0.11727950985710453 0.2421955487204105 -0.09812813604904073 2.5 -3.0 -3.0 -3.0 1.0 0.0 0.0 0.0
0.08382556801557195 0.300375 0.32441968732163395 0.19463506676858092 -0.5438643768518421 -0.0655773723374042 2.5 -3.0 -3.0 -3.0 1.0 0.0 0.0 0.0
-0.28263256692536914 0.298125 -0.18368537363703386 -0.28892769186333267 -0.41077611345322695 0.033087756201137575 2.5 -3.0 -3.0 -3.0 1.0 0.0 0.0 0.0
0.3344318796298202 0.295875 -0.05579697359414303 -0.015281278717161539 0.07368591073731227 0.306581720710419 2.5 -3.0 -3.0 -3.0 1.0 0.0 0.0 0.0
-0.21011107806166063 0.293625 0.26858461283321267 0.460650185098441 -0.006500795549655836 -0.22553010429975243 2.5 -3.0 -3.0 -3.0 1.0 0.0 0.0 0.0
-0.026646469759978517 0.291375 -0.3418926366921794 -0.039729317576971734 0.3708550288324349 0.45001959777632533 2.5 -3.0 -3.0 -3.0 1.0 0.0 0.0 0.0
0.2519811940719479 0.289125 0.23539798684159421 0.37489791883651086 -0.3743984471390064 0.5993044313463964 2.5 -3.0 -3.0 -3.0 1.0 0.0 0.0 0.0
-0.346686158516112 0.286875 -0.0033825830871190457 0.15970651190196045 -0.4998395397891248 0.2706652265535749 2.5 -3.0 -3.0 -3.0 1.0 0.0 0.0 0.0
0.259296374825338 0.284625 -0.23292487925818023 0.5841857762461538 -0.11781981334494773 0.21421800629036195 2.5 -3.0 -3.0 -3.0 1.0 0.0 0.0 0.0
-0.03403589171775392 0.282375 0.3487204001058403 -0.2205874353343892 -0.34377040552236465 0.26078897197324463 2.5 -3.0 -3.0 -3.0 1.0 0.0 0.0 0.0
-0.21154231443250643 0.280125 -0.2815667480004317 -0.5971709223367753 0.3872776926376989 0.034015172231751344 2.5 -3.0 -3.0 -3.0 1.0 0.0 0.0 0.0
0.34792802706894344 0.277875 0.06505053693024047 -0.4826587898392088 -0.45731532625830495 0.17911850987538427 2.5 -3.0 -3.0 -3.0 1.0 0.0 0.0 0.0
-0.3019821036709145 0.275625 0.18798315998378431 0.44838458868041076 -0.2640207080077529 0.5742182241280777 2.5 -3.0 -3.0 -3.0 1.0 0.0 0.0 0.0
0.09615736130284652 0.273375 -0.3442671509776585 -0.4797831731235491 0.4247257315168058 -0.12396458720291464 2.5 -3.0 -3.0 -3.0 1.0 0.0 0.0 0.0
0.16241881938865907 0.271125 0.320330082076901 -0.502385499878119 -0.2703433878968855 -0.05642617821850284 2.5 -3.0 -3.0 -3.0 1.0 0.0 0.0 0.0
-0.33772183754407875 0.268875 -0.12708341678146245 0.35080983742278266 0.43363188436468336 -0.4398953349569411 2.5 -3.0 -3.0 -3.0 1.0 0.0 0.0 0.0
0.33641499016889703 0.266625 -0.13504097068912427 0.025038634097038635 0.1809398857796847 -0.18353638248047824 2.5 -3.0 -3.0 -3.0 1.0 0.0 0.0 0.0
-0.15755445048732422 0.264375 0.32830238273067297 0.44623660285270333 -0.2659082217403673 -0.5777108069452858 2.5 -3.0 -3.0 -3.0 1.0 0.0 0.0 0.0
-0.10605991342554094 0.262125 -0.3500596793964806 -0.5512040715896869 0.2171961241334919 0.0700268833164563 2.5 -3.0 -3.0 -3.0 1.0 0.0 0.0 0.0
0.31604535401134304 0.259875 0.18729740677020829 0.5358030650039951 0.5261265596819024 0.4918214128861229 2.5 -3.0 -3.0 -3.0 1.0 0.0 0.0 0.0
-0.36110726067448407 0.257625 0.07570274541369168 -0.5495945616391905 0.2989617880690357 0.24158978111383156 2.5 -3.0 -3.0 -3.0 1.0 0.0 0.0 0.0
0.21604292337201572 0.255375 -0.3010133961070061 0.18643423760967548 0.25482918301949004 0.4832521807431968 2.5 -3.0 -3.0 -3.0 1.0 0.0 0.0 0.0
0.04421138528957512 0.253125 0.369422641138543 0.16816943975186896 -0.1530608844332928 0.045514540478184616 2.5 -3.0 -3.0 -3.0 1.0 0.0 0.0 0.0
-0.28329480262658624 0.250875 -0.24352779960358442 -0.3505870755710103 0.10455060563417215 -0.5893235015411055 2.5 -3.0 -3.0 -3.0 1.0 0.0 0.0 0.0
0.37489386888316945 0.248625 -0.011840458133406817 -0.41877219136321464 -0.19990993436416032 0.3475477907109391 2.5 -3.0 -3.0 -3.0 1.0 0.0 0.0 0.0
-0.26949741467329585 0.246375 0.26300285713164717 0.26219930732584745 -0.19409283596798566 0.14464572997986197 2.5 -3.0 -3.0 -3.0 1.0 0.0 0.0 0.0
0.0211449372868595 0.244125 -0.3774332735757869 -0.5505564605925488 -0.40336734518930883 0.5782968841503665 2.5 -3.0 -3.0 -3.0 1.0 0.0 0.0 0.0
0.24027494919402254 0.241875 0.2937080747354589 -0.2525629756369597 -0.12624962041405122 0.058181155887016084 2.5 -3.0 -3.0 -3.0 1.0 0.0 0.0 0.0
-0.37697839264427796 0.239625 -0.054471560050512666 -0.24791159825119613 -0.026322397018774833 -0.3123526996336513 2.5 -3.0 -3.0 -3.0 1.0 0.0 0.0 0.0
0.3159292678461964 0.23737500000000003 -0.21527147301295238 -0.5420923652540467 -0.3844957811501332 0.027660278040117746 2.5 -3.0 -3.0 -3.0 1.0 0.0 0.0 0.0
-0.08786043691063734 0.235125 0.3734926746281271 -0.514964539086783 -0.1161970242658878 -0.20577514798141575 2.5 -3.0 -3.0 -3.0 1.0 0.0 0.0 0.0
-0.18817451808506214 0.23287500000000003 -0.3359458068177882 -0.10233406923426913 -0.4807195941135587 0.4903890652761366 2.5 -3.0 -3.0 -3.0 1.0 0.0 0.0 0.0
0.3669659532474527 0.230625 0.12102932922307885 -0.031194418635244324 0.40901799915320586 0.5714753491788683 2.5 -3.0 -3.0 -3.0 1.0 0.0 0.0 0.0
-0.3535598409419439 0.22837500000000002 0.15918636326051083 -0.1876180876106787 -0.025096177017616704 0.23951434938074215 2.5 -3.0 -3.0 -3.0 1.0 0.0 0.0 0.0
0.15369523527498546 0.226125 -0.35741468776306173 -0.08815761174716612 -0.23771626053677286 0.28170118946233824 2.5 -3.0 -3.0 -3.0 1.0 0.0 0.0 0.0
0.12852778725663871 0.22387500000000002 0.36859271869898924 0.4732797338574894 0.5036266133179321 0.15209045616824074 2.5 -3.0 -3.0 -3.0 1.0 0.0 0.0 0.0
-0.34488196725661563 0.22162500000000002 -0.18557690598834423 -0.14931438440574565 0.5694726257756328 0.16665422100056795 2.5 -3.0 -3.0 -3.0 1.0 0.0 0.0 0.0
0.38088668487351485 0.21937500000000001 -0.09643621032093604 -0.5209983872672388 -0.49839651705586663 0.2998434861397032 2.5 -3.0 -3.0 -3.0 1.0 0.0 0.0 0.0
-0.21639735184723385 0.217125 0.32943727853493515 -0.5266126121448407 -0.5905787936024978 -0.12743045786194865 2.5 -3.0 -3.0 -3.0 1.0 0.0 0.0 0.0
-0.06316368322560105 0.214875 -0.39030639694524083 0.022804474441595123 -0.06174685728413451 -0.013657434687416935 2.5 -3.0 -3.0 -3.0 1.0 0.0 0.0 0.0
0.3111760394387129 0.212625 0.24588631896516042 0.10186644239192923 0.2151630808465499 -0.09235431179109299 2.5 -3.0 -3.0 -3.0 1.0 0.0 0.0 0.0
-0.3967402472044911 0.210375 0.028974741122559104 -0.15800225239868895 0.5861508697191473 -0.2869001574644925 2.5 -3.0 -3.0 -3.0 1.0 0.0 0.0 0.0
0.27378271247112307 0.208125 -0.2902189013950579 0.33252018541021144 -0.08253477044154701 -0.16977554158855326 2.5 -3.0 -3.0 -3.0 1.0 0.0 0.0 0.0
-0.005855859020042589 0.205875 0.4001014787402533 -0.5233704612674056 0.4362947331624509 0.24240497971432456 2.5 -3.0 -3.0 -3.0 1.0 0.0 0.0 0.0
-0.26671082707774274 0.203625 -0.2998369458464157 0.48361284904911256 -0.05806584877575877 0.2123051601799242 2.5 -3.0 -3.0 -3.0 1.0 0.0 0.0 0.0
0.4003290852505414 0.201375 0.04104549765156594 -0.4573076561353731 -0.1224556780772239 -0.35132163189950055 2.5 -3.0 -3.0 -3.0 1.0 0.0 0.0 0.0
-0.32381319548469495 0.199125 0.24081995101110443 -0.5494782865312057 0.5375536215075839 -0.3409267578415714 2.5 -3.0 -3.0 -3.0 1.0 0.0 0.0 0.0
0.07630612794068543 0.196875 -0.3973884865137637 -0.42437461223039313 -0.36243594773046933 -0.14636164282284295 2.5 -3.0 -3.0 -3.0 1.0 0.0 0.0 0.0
0.21273623285623805 0.194625 0.3454915405695724 0.05566951477813644 -0.4183987578325307 0.5864278667829078 2.5 -3.0 -3.0 -3.0 1.0 0.0 0.0 0.0
-0.3912719733194852 0.192375 -0.11134676586985393 0.5795870526543385 -0.4219175794967642 -0.11291174019846134 2.5 -3.0 -3.0 -3.0 1.0 0.0 0.0 0.0
0.36466996935949914 0.190125 -0.18266991493495033 0.21591537973200267 0.45318789948131416 -0.00551289010657352 2.5 -3.0 -3.0 -3.0 1.0 0.0 0.0 0.0
-0.14587601335994388 0.187875 0.3819989176702069 0.5004560073117781 -0.21304762214243267 -0.0018709302110996083 2.5 -3.0 -3.0 -3.0 1.0 0.0 0.0 0.0
-0.15084979726224795 0.18562499999999998 -0.3811662341301216 -0.0016240897619892892 0.20408178157835302 -0.3576104294406557 2.5 -3.0 -3.0 -3.0 1.0 0.0 0.0 0.0
0.3696157461149182 0.18337499999999998 0.17960459236587553 0.13172473250013644 -0.3374722837534131 -0.1917356219387616 2.5 -3.0 -3.0 -3.0 1.0 0.0 0.0 0.0
-0.39481953833937034 0.18112499999999998 0.11752134495693324 0.5550797559056181 0.47880964563720907 0.3817420571013529 2.5 -3.0 -3.0 -3.0 1.0 0.0 0.0 0.0
0.21224786777929144 0.17887499999999998 -0.3541956761426435 -0.5574380857487853 -0.4219597410456843 -0.2917417055137154 2.5 -3.0 -3.0 -3.0 1.0 0.0 0.0 0.0
0.08294464436916667 0.17662499999999998 0.4054920410383815 0.34099988182698504 0.4107999924928406 0.09953781629546583 2.5 -3.0 -3.0 -3.0 1.0 0.0 0.0 0.0
-0.33583821763135274 0.17437499999999997 -0.24352833706407997 0.2617579821321952 0.368466455970091 -0.5203690427546577 2.5 -3.0 -3.0 -3.0 1.0 0.0 0.0 0.0
0.4130701651398972 0.17212499999999997 -0.04739222558920484 -0.4984282358003158 0.4426743768052542 -0.5527010047463654 2.5 -3.0 -3.0 -3.0 1.0 0.0 0.0 0.0
-0.2731780648310551 0.16987499999999997 0.3146684433974272 -0.3298912155882047 -0.5512415680249189 -0.5816578320363278 2.5 -3.0 -3.0 -3.0 1.0 0.0 0.0 0.0
-0.011146770174223098 0.16762500000000002 -0.41746569785993565 0.4127456228308894 -0.20328675929990364 -0.40717192768473526 2.5 -3.0 -3.0 -3.0 1.0 0.0 0.0 0.0
0.2908360349046561 0.16537500000000002 0.3009410410295307 -0.42141661165330857 0.18730039412440433 0.5623179260312484 2.5 -3.0 -3.0 -3.0 1.0 0.0 0.0 0.0
-0.41861667345458536 0.16312500000000002 -0.025501276062523417 0.005999631126814009 0.48130857226080587 0.0029143187429130357 2.5 -3.0 -3.0 -3.0 1.0 0.0 0.0 0.0
0.3265754420897813 0.16087500000000002 -0.26451411115262624 0.08864697298985909 0.2142856281472309 0.36613198683856446 2.5 -3.0 -3.0 -3.0 1.0 0.0 0.0 0.0
-0.06225616452081106 0.15862500000000002 0.41648803026516584 0.30941565871365906 0.5886390752466747 0.29635846698015933 2.5 -3.0 -3.0 -3.0 1.0 0.0 0.0 0.0
-0.23589785065513444 0.15637500000000001 -0.34985577518641575 0.48693686802343955 -0.3526742015213001 0.042499565194297206 2.5 -3.0 -3.0 -3.0 1.0 0.0 0.0 0.0
0.41107203604560405 0.154125 0.09881935820638392 0.11833711640096287 0.39083594059242455 -0.021343724320900658 2.5 -3.0 -3.0 -3.0 1.0 0.0 0.0 0.0
-0.3705748868009245 0.151875 0.20520291822360137 0.34924825405091464 -0.13371733181986295 0.1036661466977395 2.5 -3.0 -3.0 -3.0 1.0 0.0 0.0 0.0
0.13489207724365854 0.149625 -0.4023884775585539 0.4215799289772814 0.35767136532498994 0.18838146226336097 2.5 -3.0 -3.0 -3.0 1.0 0.0 0.0 0.0
0.17266370997280683 0.147375 0.3885458179332605 -0.5997111641697997 -0.38163729337654667 0.00822934422135324 2.5 -3.0 -3.0 -3.0 1.0 0.0 0.0 0.0
-0.3904846124740587 0.145125 -0.17017785342395225 -0.29464872181994484 -0.5212549880727231 0.43186010654575396 2.5 -3.0 -3.0 -3.0 1.0 0.0 0.0 0.0
0.40360348963702025 0.142875 -0.13853143155190348 0.5315364255757957 -0.23663414622115958 -0.11031219913816707 2.5 -3.0 -3.0 -3.0 1.0 0.0 0.0 0.0
-0.20438507161653793 0.140625 0.3754348836686632 0.37204504058074434 -0.5252894893545322 0.16918183507494028 2.5 -3.0 -3.0 -3.0 1.0 0.0 0.0 0.0
-0.1030720260589264 0.138375 -0.4156062040190305 -0.4472150244806555 -0.25549399200572975 0.39592882395408724 2.5 -3.0 -3.0 -3.0 1.0 0.0 0.0 0.0
0.35734039808593093 0.136125 0.2372294759737676 -0.5333675449324063 -0.5568793998837732 -0.09856074624444656 2.5 -3.0 -3.0 -3.0 1.0 0.0 0.0 0.0
-0.42443694743915544 0.133875 0.06656396940937066 -0.009802849084483256 0.435990219729841 0.26062649561422735 2.5 -3.0 -3.0 -3.0 1.0 0.0 0.0 0.0
0.26843661915681716 0.131625 -0.33632817436345996 0.20825257031944158 -0.41835147312025583 0.5840471090624199 2.5 -3.0 -3.0 -3.0 1.0 0.0 0.0 0.0
0.029295952087585817 0.129375 0.43000448435601446 -0.1066317644550224 0.13412503718983193 -0.13598039336011708 2.5 -3.0 -3.0 -3.0 1.0 0.0 0.0 0.0
-0.31255016543889225 0.127125 -0.29774423329280625 -0.5435605010257915 -0.03493294914232176 -0.41835869532619646 2.5 -3.0 -3.0 -3.0 1.0 0.0 0.0 0.0
0.43224423207422963 0.12487499999999999 0.008435532796426093 -0.5610414451512672 0.14088050841720653 0.1559595494620027 2.5 -3.0 -3.0 -3.0 1.0 0.0 0.0 0.0
-0.32490450204216326 0.12262499999999998 0.28618206430126597 -0.47364861041236206 0.05897251947813262 -0.18399842803203806 2.5 -3.0 -3.0 -3.0 1.0 0.0 0.0 0.0
0.04632867440037933 0.12037499999999998 -0.4311189085429954 -0.1399031122021351 0.33170387843961396 -0.011616386970905212 2.5 -3.0 -3.0 -3.0 1.0 0.0 0.0 0.0
0.25742190293623896 0.11812499999999998 0.3496862140029052 0.4575319384946896 0.13214369148746807 -0.03937390195431565 2.5 -3.0 -3.0 -3.0 1.0 0.0 0.0 0.0
-0.4266189473179785 0.11587499999999998 -0.08407888060803305 0.15877516806646147 -0.1945615442054971 -0.45081144896609704 2.5 -3.0 -3.0 -3.0 1.0 0.0 0.0 0.0
0.37187677869611774 0.11362499999999998 -0.22648845630980546 0.21903554243102857 0.14644493129598835 0.34627978964863615 2.5 -3.0 -3.0 -3.0 1.0 0.0 0.0 0.0
-0.1213813442099723 0.11137500000000003 0.4187626758114675 -0.44746905006346943 0.4941399817554266 0.3592094537061768 2.5 -3.0 -3.0 -3.0 1.0 0.0 0.0 0.0
-0.19361946492783044 0.10912500000000003 -0.391284087557954 0.5002648897092111 0.44704166612816026 0.21720773562846837 2.5 -3.0 -3.0 -3.0 1.0 0.0 0.0 0.0
0.4075962550022561 0.10687500000000003 0.1579336166974461 0.3723010193248307 0.022808771077682175 0.3425869792327982 2.5 -3.0 -3.0 -3.0 1.0 0.0 0.0 0.0
-0.40773820369600006 0.10462500000000002 0.15906969108462857 -0.37304703857137794 0.338536927628753 -0.06650447513239119 2.5 -3.0 -3.0 -3.0 1.0 0.0 0.0 0.0
0.19343816748359582 0.10237500000000002 -0.39319338083898153 0.30793946555683804 -0.05343571582537465 0.3474704739333398 2.5 -3.0 -3.0 -3.0 1.0 0.0 0.0 0.0
0.12310882535884754 0.10012500000000002 0.4210928656410184 -0.5095924977377277 -0.546430913490705 0.5211474988458812 2.5 -3.0 -3.0 -3.0 1.0 0.0 0.0 0.0
-0.3756547496308569 0.09787500000000002 -0.22760490648221596 -0.01660187910151789 0.4812856795786856 0.5337399022584841 2.5 -3.0 -3.0 -3.0 1.0 0.0 0.0 0.0
0.4312267919259249 0.09562500000000002 -0.08601926121674763 0.19981338294676024 0.08615619131216952 -0.340824739071829 2.5 -3.0 -3.0 -3.0 1.0 0.0 0.0 0.0
-0.2601536482807941 0.09337500000000001 0.35510729176010014 -0.48782853684119015 0.3832730580987278 0.46652648115838535 2.5 -3.0 -3.0 -3.0 1.0 0.0 0.0 0.0
-0.048093756730400006 0.09112500000000001 -0.43804477503853084 0.33527485283386277 0.2382029192779499 -0.09586666071021507 2.5 -3.0 -3.0 -3.0 1.0 0.0 0.0 0.0
0.33170318005325616 0.08887500000000001 0.290816496639302 -0.2336260919676523 -0.4638661252347492 -0.0888357023134044 2.5 -3.0 -3.0 -3.0 1.0 0.0 0.0 0.0
-0.44147855510824874 0.08662500000000001 0.009633003401483924 0.07921556909730891 0.5074566997650151 0.5229057231971438 2.5 -3.0 -3.0 -3.0 1.0 0.0 0.0 0.0
0.31934012872471684 0.084375 -0.30561862109675403 -0.10123056415090423 -0.48094681428228514 0.32858247896573206 2.5 -3.0 -3.0 -3.0 1.0 0.0 0.0 0.0
-0.029056877108189116 0.082125 0.44148746558392754 0.28113520998853897 -0.5631589848577127 -0.0639376810393962 2.5 -3.0 -3.0 -3.0 1.0 0.0 0.0 0.0
-0.27705243965862947 0.079875 -0.3454879593476471 0.22370172515826972 -0.5638389185372761 0.5031388240819364 2.5 -3.0 -3.0 -3.0 1.0 0.0 0.0 0.0
0.43805884512385546 0.077625 0.06766688690751187 0.554690983812503 0.26705132650660796 -0.5057537524178354 2.5 -3.0 -3.0 -3.0 1.0 0.0 0.0 0.0
-0.3690421664942647 0.075375 0.24622446816719787 -0.5156046409483731 -0.16889602221451572 -0.5647469906916163 2.5 -3.0 -3.0 -3.0 1.0 0.0 0.0 0.0
0.10588773459061761 0.073125 -0.43120821193278186 -0.18254672725879256 -0.5880429104244408 0.5691882154091614 2.5 -3.0 -3.0 -3.0 1.0 0.0 0.0 0.0
0.2133737548831843 0.070875 0.3898055606351079 0.3828080388826352 -0.5153788662261751 0.47212211021743233 2.5 -3.0 -3.0 -3.0 1.0 0.0 0.0 0.0
-0.4209791988271265 0.06862499999999999 -0.1434124246007671 -0.3504263519951812 -0.35425104207678 0.20851097463460092 2.5 -3.0 -3.0 -3.0 1.0 0.0 0.0 0.0
0.40760328163202386 0.06637499999999999 -0.1787566059696956 0.5259147217950577 -0.4521742545249151 -0.5913785192972755 2.5 -3.0 -3.0 -3.0 1.0 0.0 0.0 0.0
-0.1799388310428973 0.06412499999999999 0.4074432493708979 -0.15704382339596917 -0.5704199826766131 0.1258178850966373 2.5 -3.0 -3.0 -3.0 1.0 0.0 0.0 0.0
-0.1426444781017273 0.06187499999999998 -0.4222843085435284 0.4310107303430506 -0.37560995709257067 -0.4651307570037791 2.5 -3.0 -3.0 -3.0 1.0 0.0 0.0 0.0
0.39069907748300425 0.05962499999999998 0.21517223387075177 -0.18666047119366697 0.5510058247287766 -0.4438107666855791 2.5 -3.0 -3.0 -3.0 1.0 0.0 0.0 0.0
-0.4337227692354615 0.057374999999999975 0.1053217395494519 0.5598231125603925 -0.1653121560661809 -0.031955516687866135 2.5 -3.0 -3.0 -3.0 1.0 0.0 0.0 0.0
0.2488277956898349 0.05512500000000003 -0.37087189495449474 -0.24884161684203177 0.5245522130585637 0.549777473984997 2.5 -3.0 -3.0 -3.0 1.0 0.0 0.0 0.0
0.06708331880892367 0.052875000000000026 0.4418190384224975 0.1630988478092921 -0.3791453397898133 0.5915421463323445 2.5 -3.0 -3.0 -3.0 1.0 0.0 0.0 0.0
-0.34811241331364184 0.050625000000000024 -0.2806329579218239 -0.4769034725437056 0.09701925791289646 -0.41231632790038947 2.5 -3.0 -3.0 -3.0 1.0 0.0 0.0 0.0
0.4465006145836356 0.04837500000000002 -0.02823226082756533 0.4772103769802467 0.5348140697947382 0.36526835760012943 2.5 -3.0 -3.0 -3.0 1.0 0.0 0.0 0.0
-0.3103297357630788 0.04612500000000002 0.3225956284208105 -0.2209302975982507 -0.30859357205041776 0.3058300958628453 2.5 -3.0 -3.0 -3.0 1.0 0.0 0.0 0.0
0.010922788326712328 0.04387500000000002 -0.4477227680944647 -0.2507285770255752 -0.09625754657510961 -0.5444931877168304 2.5 -3.0 -3.0 -3.0 1.0 0.0 0.0 0.0
0.29451939804686 0.041625000000000016 0.3376768922344484 -0.44131942747943215 -0.575340455229868 -0.506494655887757 2.5 -3.0 -3.0 -3.0 1.0 0.0 0.0 0.0
-0.44546895488483174 0.039375000000000014 -0.05007014688230585 -0.512146620762167 -0.09572195739102378 0.060932613164925396 2.5 -3.0 -3.0 -3.0 1.0 0.0 0.0 0.0
0.3624519726539801 0.03712500000000001 -0.26410282447228484 0.28905458384510635 -0.4292598313891008 -0.09337350459669742 2.5 -3.0 -3.0 -3.0 1.0 0.0 0.0 0.0
-0.08889769095960955 0.03487500000000001 0.4397509919454984 0.1643592448940645 -0.49853316621728094 -0.06622661382455539 2.5 -3.0 -3.0 -3.0 1.0 0.0 0.0 0.0
-0.23158445582407672 0.03262500000000001 -0.3844531820594886 -0.15689275291224267 0.5387183147299941 -0.5305714633187794 2.5 -3.0 -3.0 -3.0 1.0 0.0 0.0 0.0
0.4306089930540616 0.030375000000000003 0.1270954541908056 -0.10964853458022232 -0.09932942424455393 0.27381660551961357 2.5 -3.0 -3.0 -3.0 1.0 0.0 0.0 0.0
-0.40350108945390084 0.028125 0.19722032142889104 -0.2151947965505953 -0.3552116688645192 -0.24802601380043388 2.5 -3.0 -3.0 -3.0 1.0 0.0 0.0 0.0
0.1643582111520898 0.025875 -0.4181110651512168 -0.03493494906076955 0.5403219954859453 0.35582042731596764 2.5 -3.0 -3.0 -3.0 1.0 0.0 0.0 0.0
0.16128181789110665 0.023624999999999997 0.41944014423125975 -0.26763570506430806 0.06981790607165558 0.22584036428223986 2.5 -3.0 -3.0 -3.0 1.0 0.0 0.0 0.0
-0.4023527678555774 0.021374999999999995 -0.20038802253117796 0.3547885868185587 -0.0646027392601829 -0.12146771384435281 2.5 -3.0 -3.0 -3.0 1.0 0.0 0.0 0.0
0.43213999175241924 0.019124999999999993 -0.12405346389044943 0.32116889138553417 -0.08194020532306552 -0.30245079732359387 2.5 -3.0 -3.0 -3.0 1.0 0.0 0.0 0.0
-0.23489672027762523 0.01687499999999999 0.3834563406410371 -0.05586356216322277 0.5245255755485473 -0.4289190141376784 2.5 -3.0 -3.0 -3.0 1.0 0.0 0.0 0.0
-0.0858305428249718 0.014624999999999989 -0.441496576762913 -0.04507757456734551 0.16476422923653775 -0.02005441407827968 2.5 -3.0 -3.0 -3.0 1.0 0.0 0.0 0.0
0.36156970419740214 0.012374999999999987 0.267608311495744 -0.35563211475555606 -0.5977882072612009 0.2387900541641268 2.5 -3.0 -3.0 -3.0 1.0 0.0 0.0 0.0
-0.4474330251663964 0.010124999999999985 0.04691665339137989 0.14248262162814299 -0.5906680206769629 -0.24172785477825504 2.5 -3.0 -3.0 -3.0 1.0 0.0 0.0 0.0
0.2982612805344989 0.007874999999999983 -0.33686524443599253 0.3223611114514098 0.1547044542535451 0.05424973913276667 2.5 -3.0 -3.0 -3.0 1.0 0.0 0.0 0.0
0.00762118898856313 0.00562499999999998 0.4499002965695851 -0.4125346682291413 0.24755285159962614 -0.03427809394103556 2.5 -3.0 -3.0 -3.0 1.0 0.0 0.0 0.0
-0.30953838946933987 0.0033749999999999783 -0.32661076960156615 0.21381449548315637 0.3121078040681906 -0.3211647342705058 2.5 -3.0 -3.0 -3.0 1.0 0.0 0.0 0.0
0.4488776019827883 0.001124999999999976 0.031743232557215825 0.314394015717254 -0.2638939383739329 0.5808181645418946 2.5 -3.0 -3.0 -3.0 1.0 0.0 0.0 0.0
-0.3524306192694215 -0.001124999999999976 0.27980599167346665 -0.4550020670585776 0.4604616224928677 -0.5513434499479544 2.5 -3.0 -3.0 -3.0 1.0 0.0 0.0 0.0
0.07086336701780836 -0.003375000000000028 -0.4443725830762958 -0.29210901798222716 0.03132229051496211 0.09793942013351357 2.5 -3.0 -3.0 -3.0 1.0 0.0 0.0 0.0
0.2479045286156605 -0.00562499999999998 0.3755152514437292 -0.12451801796628938 -0.4775619261275147 -0.29687029701034406 2.5 -3.0 -3.0 -3.0 1.0 0.0 0.0 0.0
-0.4364212514403941 -0.007875000000000033 -0.1094279473726903 -0.2599241953674136 0.3062674254704778 0.49052919026640845 2.5 -3.0 -3.0 -3.0 1.0 0.0 0.0 0.0
0.3956813787161793 -0.010124999999999985 -0.21408813818673725 0.11449189858370329 -0.557458841170767 0.35068376597005235 2.5 -3.0 -3.0 -3.0 1.0 0.0 0.0 0.0
-0.1471302707870407 -0.012375000000000037 0.4250876883575106 -0.23327528059209607 -0.19213151230050785 0.036222525174497644 2.5 -3.0 -3.0 -3.0 1.0 0.0 0.0 0.0
-0.17862650470069644 -0.014624999999999989 -0.4127695255144353 -0.30114354290933393 0.5039737054288436 -0.4037342899910245 2.5 -3.0 -3.0 -3.0 1.0 0.0 0.0 0.0
0.41046350765138034 -0.01687500000000004 0.1836707468856303 -0.10220351939552068 -0.2523696605913531 0.02380092264193756 2.5 -3.0 -3.0 -3.0 1.0 0.0 0.0 0.0
-0.42664534807795823 -0.019124999999999993 0.1418026140042482 0.08877816369885187 0.15256762692581116 0.037650964605567334 2.5 -3.0 -3.0 -3.0 1.0 0.0 0.0 0.0
0.2187593855825024 -0.021375000000000043 -0.3926670862124378 -0.10703459719728059 0.16151281485175914 -0.1159045480958189 2.5 -3.0 -3.0 -3.0 1.0 0.0 0.0 0.0
0.10391039676289397 -0.023624999999999997 0.43720074201627107 0.33426031086485725 0.34581291030598815 -0.2492949982670134 2.5 -3.0 -3.0 -3.0 1.0 0.0 0.0 0.0
-0.3718425687933259 -0.025875000000000047 -0.25211820324637546 -0.15383481173307056 0.1545730871362634 -0.41151603946121146 2.5 -3.0 -3.0 -3.0 1.0 0.0 0.0 0.0
0.4443547280308326 -0.028125 -0.06525228004939583 0.2364383171843098 -0.14228669642314432 0.10927496970840841 2.5 -3.0 -3.0 -3.0 1.0 0.0 0.0 0.0
-0.28348352668437254 -0.030374999999999954 0.3481586556063064 -0.4325602809225338 0.2019100633170718 -0.17513056726356035 2.5 -3.0 -3.0 -3.0 1.0 0.0 0.0 0.0
-0.026136668146296775 -0.03262500000000001 -0.4480541082873924 -0.03280130855132222 -0.10187111898055719 -0.027941702405886514 2.5 -3.0 -3.0 -3.0 1.0 0.0 0.0 0.0
0.3218071831187573 -0.034874999999999955 0.31260817530603807 0.23363475949973303 -0.21811178780150645 0.182465377078258 2.5 -3.0 -3.0 -3.0 1.0 0.0 0.0 0.0
-0.44827388789606853 -0.03712500000000001 -0.01312462592011687 -0.5277334710003577 -0.23977781704534812 0.29425162818005496 2.5 -3.0 -3.0 -3.0 1.0 0.0 0.0 0.0
0.33926350287807266 -0.03937499999999996 -0.2930015102177802 -0.5371129463255236 0.14537063433868228 -0.5693438408785937 2.5 -3.0 -3.0 -3.0 1.0 0.0 0.0 0.0
-0.05221897617661273 -0.041625000000000016 0.445017457974478 -0.034165358028119416 0.4662540524561718 -0.5878678872028753 2.5 -3.0 -3.0 -3.0 1.0 0.0 0.0 0.0
-0.26197472358492613 -0.04387499999999996 -0.36324128148876694 0.03219362478470744 -0.5202518044093644 0.4405317313793859 2.5 -3.0 -3.0 -3.0 1.0 0.0 0.0 0.0
0.43831653881764576 -0.04612500000000002 0.09083554466132295 0.22355582668759758 0.29034462801771493 0.2028090959350656 2.5 -3.0 -3.0 -3.0 1.0 0.0 0.0 0.0
-0.38435541169935467 -0.04837499999999997 0.22897767767278013 -0.5922918555622252 -0.5505865652905217 0.14505216482645591 2.5 -3.0 -3.0 -3.0 1.0 0.0 0.0 0.0
0.1286678653338349 -0.050625000000000024 -0.42823088375949037 0.5996221506922936 0.4477766869101515 0.23962296807044514 2.5 -3.0 -3.0 -3.0 1.0 0.0 0.0 0.0
0.19427688609326138 -0.05287499999999997 0.40244344435573304 0.27251994521074774 -0.3279755728780051 0.3019367209629744 2.5 -3.0 -3.0 -3.0 1.0 0.0 0.0 0.0
-0.4148477463666721 -0.05512500000000003 -0.16541638887816806 -0.2544910741638749 -0.4734476795731284 -0.04692612543989054 2.5 -3.0 -3.0 -3.0 1.0 0.0 0.0 0.0
0.41736790115532524 -0.057374999999999975 -0.15815228250075516 -0.2037650729644583 -0.3980935216185852 -0.0939481289863144 2.5 -3.0 -3.0 -3.0 1.0 0.0 0.0 0.0
-0.2007909666806259 -0.05962500000000003 0.3982811156387656 0.47664117235665054 -0.07767567204219743 -0.06324972570033024 2.5 -3.0 -3.0 -3.0 1.0 0.0 0.0 0.0
-0.12089487017061812 -0.06187499999999998 -0.4290173827963494 0.25059330893308557 0.028994244182750782 -0.44493235758960775 2.5 -3.0 -3.0 -3.0 1.0 0.0 0.0 0.0
0.3786707258815691 -0.06412500000000003 0.2345132527925139 0.49247087705276393 -0.06705079660564185 0.3472052870704309 2.5 -3.0 -3.0 -3.0 1.0 0.0 0.0 0.0
-0.4373074553654538 -0.06637499999999999 0.08280428042554079 -0.133349843973307 0.36821522258483036 -0.13255630079105676 2.5 -3.0 -3.0 -3.0 1.0 0.0 0.0 0.0
0.2663190033983136 -0.06862500000000003 -0.3561808498557005 -0.33580857400074504 -0.3645663996999976 0.5280415732050124 2.5 -3.0 -3.0 -3.0 1.0 0.0 0.0 0.0
0.04418626084053298 -0.070875 0.44218130752886015 0.10383631029722404 -0.5402480819300821 -0.13398288458634103 2.5 -3.0 -3.0 -3.0 1.0 0.0 0.0 0.0
-0.33099888566380176 -0.07312500000000004 -0.295960254196947 -0.3191648873700876 -0.4984115224688408 -0.3758929577743098 2.5 -3.0 -3.0 -3.0 1.0 0.0 0.0 0.0
0.4436101730653966 -0.075375 -0.005350114754741662 -0.5316114240005958 0.1656883538737232 -0.39195136219503734 2.5 -3.0 -3.0 -3.0 1.0 0.0 0.0 0.0
-0.3232073571599837 -0.07762500000000004 0.3033337496103239 0.13293585149223056 0.13500809746947565 0.2459084528879241 2.5 -3.0 -3.0 -3.0 1.0 0.0 0.0 0.0
0.033393885968456334 -0.079875 -0.4415935152999031 0.014542380733717497 -0.2586912115982421 0.45294894471423347 2.5 -3.0 -3.0 -3.0 1.0 0.0 0.0 0.0
0.27341408893389885 -0.08212500000000005 0.34785085934556215 -0.1763147019317836 -0.050046810025513054 0.15825531807665566 2.5 -3.0 -3.0 -3.0 1.0 0.0 0.0 0.0
-0.43615897204556997 -0.084375 -0.0717370927704191 0.019349157800939442 0.5477620182798405 0.5456612129257464 2.5 -3.0 -3.0 -3.0 1.0 0.0 0.0 0.0
0.36970320781321975 -0.08662499999999995 -0.24148632985660973 0.5157118207313116 0.5208916195983097 0.09715216268243516 2.5 -3.0 -3.0 -3.0 1.0 0.0 0.0 0.0
-0.10937505461901341 -0.08887500000000001 0.4273620617252868 -0.011757523523996437 0.24494018085884262 -0.3414964884174384 2.5 -3.0 -3.0 -3.0 1.0 0.0 0.0 0.0
-0.2078125778077583 -0.09112499999999996 -0.38860026618608284 -0.2809535529413661 -0.5474312956402899 -0.40457094893036283 2.5 -3.0 -3.0 -3.0 1.0 0.0 0.0 0.0
0.41528565339818574 -0.09337500000000001 0.14601005258762806 -0.5953505400734274 0.18555309182819774 -0.4315116131571817 2.5 -3.0 -3.0 -3.0 1.0 0.0 0.0 0.0
-0.4044026300349768 -0.09562499999999996 0.17266838794577793 0.34401521469126256 0.21660479505807007 0.5648109520253949 2.5 -3.0 -3.0 -3.0 1.0 0.0 0.0 0.0
0.18135357310525704 -0.09787500000000002 -0.4000392054498611 -0.12418261565773045 0.5056702961412632 -0.05555499321656016 2.5 -3.0 -3.0 -3.0 1.0 0.0 0.0 0.0
0.13634042521244377 -0.10012499999999996 0.4169967299966392 -0.1925955121965515 -0.47719335609953545 0.4593986220862316 2.5 -3.0 -3.0 -3.0 1.0 0.0 0.0 0.0
-0.38175777969599667 -0.10237500000000002 -0.21512869872841903 0.3537481902751042 -0.21248522815792728 -0.053106738089245244 2.5 -3.0 -3.0 -3.0 1.0 0.0 0.0 0.0
0.426295713371818 -0.10462499999999997 -0.09912403409775448 -0.20982784102410207 -0.5654050601542863 -0.5467769695210597 2.5 -3.0 -3.0 -3.0 1.0 0.0 0.0 0.0
-0.24707239600511297 -0.10687500000000003 0.36060083958206846 -0.1575550489415293 -0.34849040624545957 0.029417523852710747 2.5 -3.0 -3.0 -3.0 1.0 0.0 0.0 0.0
-0.06132073906389484 -0.10912499999999997 -0.43224009686244724 -0.3746579572204573 -0.3580540962403083 0.2072014575811564 2.5 -3.0 -3.0 -3.0 1.0 0.0 0.0 0.0
0.3367508430197186 -0.11137500000000003 0.2769376808968199 0.28272318811405905 -0.22532148495107407 0.43199327932004716 2.5 -3.0 -3.0 -3.0 1.0 0.0 0.0 0.0
-0.43479818508386 -0.11362499999999998 0.023235697165814615 -0.29443299041314724 -0.1872715484621314 0.2549764684435308 2.5 -3.0 -3.0 -3.0 1.0 0.0 0.0 0.0
0.30449564328906276 -0.11587500000000003 -0.3104116421672677 -0.5465965184049484 0.5210201521394292 -0.5131947218548495 2.5 -3.0 -3.0 -3.0 1.0 0.0 0.0 0.0
-0.01482487519095022 -0.11812499999999998 0.433966251511074 -0.046882729274327774 0.26952579115210706 -0.5430377580182423 2.5 -3.0 -3.0 -3.0 1.0 0.0 0.0 0.0
-0.2818067041223634 -0.12037500000000004 -0.3295373133450759 0.3708032227646128 0.5746720119736967 -0.04738599264524641 2.5 -3.0 -3.0 -3.0 1.0 0.0 0.0 0.0
0.4297684805701081 -0.12262499999999998 0.05255627920106833 -0.4582516364549183 -0.502227605213424 -0.48152347660423767 2.5 -3.0 -3.0 -3.0 1.0 0.0 0.0 0.0
-0.35187535383019475 -0.12487500000000004 0.2511771680345871 0.31852964896377034 -0.10318458183777768 0.5030809898388373 2.5 -3.0 -3.0 -3.0 1.0 0.0 0.0 0.0
0.08965789214261566 -0.127125 -0.42225667164835073 -0.07123226869621857 -0.5074280278264703 -0.08767729497839923 2.5 -3.0 -3.0 -3.0 1.0 0.0 0.0 0.0
0.21877975555161952 -0.12937500000000005 0.3713455640448309 0.3057934721106677 0.3952061122161539 -0.5527779761649697 2.5 -3.0 -3.0 -3.0 1.0 0.0 0.0 0.0
-0.4115097078543807 -0.131625 -0.1258356853861504 -0.38353273049239944 -0.01198385757162721 -0.44629742645806963 2.5 -3.0 -3.0 -3.0 1.0 0.0 0.0 0.0
0.3878081826383443 -0.13387500000000005 -0.18488455277211407 0.4453111703306079 0.5213530661353786 -0.21648360197541885 2.5 -3.0 -3.0 -3.0 1.0 0.0 0.0 0.0
-0.16080468028309197 -0.136125 0.3976327943895631 -0.07818758093757601 0.06846487730406788 -0.2573930506996931 2.5 -3.0 -3.0 -3.0 1.0 0.0 0.0 0.0
-0.14977268298081264 -0.13837500000000005 -0.40114897832068447 0.04929083695147369 -0.35857794543145943 -0.24403049846770453 2.5 -3.0 -3.0 -3.0 1.0 0.0 0.0 0.0
0.38075647338364893 -0.140625 0.19429132083406772 -0.06985964017478707 0.12560388262937164 0.0433980313034918 2.5 -3.0 -3.0 -3.0 1.0 0.0 0.0 0.0
-0.41128011932829445 -0.14287499999999995 0.11373389037707228 -0.28681442791927264 -0.3218545494983337 -0.45752371595914676 2.5 -3.0 -3.0 -3.0 1.0 0.0 0.0 0.0
0.22603574276772487 -0.145125 -0.36103542397726424 0.3401923630706071 -0.4813190802403434 0.2794620074152327 2.5 -3.0 -3.0 -3.0 1.0 0.0 0.0 0.0
0.07706405576871114 -0.14737499999999995 0.4181408144195888 -0.30147156520428037 -0.25853161919306095 0.28330011961295926 2.5 -3.0 -3.0 -3.0 1.0 0.0 0.0 0.0
-0.3386470582888749 -0.149625 -0.2557939195666921 0.19154495006596362 0.2903058666186699 0.01833967055323371 2.5 -3.0 -3.0 -3.0 1.0 0.0 0.0 0.0
0.42169772015677054 -0.15187499999999995 -0.0400626657822722 0.43091498359832486 -0.4538473303494341 0.1742363536878062 2.5 -3.0 -3.0 -3.0 1.0 0.0 0.0 0.0
-0.28333966705215374 -0.154125 0.31378992566647934 -0.45810682501361283 0.2847400417745138 -0.16931440624985677 2.5 -3.0 -3.0 -3.0 1.0 0.0 0.0 0.0
-0.003030257533361015 -0.15637499999999996 -0.42194511125771034 0.20985852524533194 0.24418069612953802 0.19273014916927003 2.5 -3.0 -3.0 -3.0 1.0 0.0 0.0 0.0
0.28668193927962005 -0.15862500000000002 0.3084664893726322 -0.3341304236066082 0.3981598636648244 -0.31183669509183903 2.5 -3.0 -3.0 -3.0 1.0 0.0 0.0 0.0
-0.4189048128565668 -0.16087499999999996 -0.03373413909683769 0.021783956654534673 0.2095749049840215 -0.31967619025829214 2.5 -3.0 -3.0 -3.0 1.0 0.0 0.0 0.0
0.3309892506254631 -0.16312500000000002 -0.25755844064094335 0.15421406758072678 -0.25580274240320566 -0.3943411486987357 2.5 -3.0 -3.0 -3.0 1.0 0.0 0.0 0.0
-0.06993553942226358 -0.16537499999999997 0.4126258955769948 0.37169859423189244 0.06374732409283253 -0.20653835206937274 2.5 -3.0 -3.0 -3.0 1.0 0.0 0.0 0.0
-0.226670119045136 -0.16762500000000002 -0.3507456578591727 0.10251713664664787 -0.569656323087254 -0.4442125718876073 2.5 -3.0 -3.0 -3.0 1.0 0.0 0.0 0.0
0.40318413637928785 -0.16987499999999997 0.10528550017494259 -0.1253029779621083 0.5709078953572947 0.012569421451347828 2.5 -3.0 -3.0 -3.0 1.0 0.0 0.0 0.0
-0.36759754284844826 -0.17212500000000003 0.19428080416444446 -0.5082525539197257 0.318048738299348 0.3377326451103782 2.5 -3.0 -3.0 -3.0 1.0 0.0 0.0 0.0
0.1395045523875466 -0.17437499999999997 -0.39068125017480715 0.32976260927382745 0.08339764565754461 0.2348384854433552 2.5 -3.0 -3.0 -3.0 1.0 0.0 0.0 0.0
0.16066515113321608 -0.17662500000000003 0.3814319317864471 -0.3438504764260424 0.2790727090727859 0.3794087848099133 2.5 -3.0 -3.0 -3.0 1.0 0.0 0.0 0.0
-0.37524389918993717 -0.17887499999999998 -0.1723245498927308 0.3119598482663031 -0.17584511689693558 0.10923366069085035 2.5 -3.0 -3.0 -3.0 1.0 0.0 0.0 0.0
0.39216189388668404 -0.18112500000000004 -0.12610623837942803 0.1547872289878065 0.4809718243885006 -0.4703833256719998 2.5 -3.0 -3.0 -3.0 1.0 0.0 0.0 0.0
-0.2034909131390663 -0.18337499999999998 0.3570224889903001 0.4007205250204901 0.031722670162847064 -0.16966305533767523 2.5 -3.0 -3.0 -3.0 1.0 0.0 0.0 0.0
-0.09089309921089969 -0.18562500000000004 -0.3997271618127014 -0.053276518207497146 -0.5848374012831135 -0.3359116892022868 2.5 -3.0 -3.0 -3.0 1.0 0.0 0.0 0.0
0.3361897619273329 -0.187875 0.23276474894245316 0.1833161040816059 0.19301913570533874 -0.006361271656424261 2.5 -3.0 -3.0 -3.0 1.0 0.0 0.0 0.0
-0.4040945188415892 -0.19012500000000004 0.055318208730801365 0.5439910567167835 -0.02290189374063458 -0.22326760854520739 2.5 -3.0 -3.0 -3.0 1.0 0.0 0.0 0.0
0.25992482787988447 -0.192375 -0.312939200527215 0.41733700703476967 -0.2890100407232856 0.1251671916412194 2.5 -3.0 -3.0 -3.0 1.0 0.0 0.0 0.0
0.019674948037748892 -0.19462500000000005 0.40525794969958556 0.24410262278675993 0.386035558430141 0.3424425002192986 2.5 -3.0 -3.0 -3.0 1.0 0.0 0.0 0.0
-0.28748325499214294 -0.196875 -0.2847694022786201 -0.13908920338354647 -0.5289836328447156 -0.5540545614198686 2.5 -3.0 -3.0 -3.0 1.0 0.0 0.0 0.0
0.4032385540677947 -0.19912499999999997 0.01574493214701886 0.27175246549015136 0.554029657688221 -0.18820155087444732 2.5 -3.0 -3.0 -3.0 1.0 0.0 0.0 0.0
-0.3071178491507889 -0.201375 0.26005141050952457 -0.070565882309383 0.2709576188901319 0.18939749502465583 2.5 -3.0 -3.0 -3.0 1.0 0.0 0.0 0.0
0.05065382628525246 -0.20362499999999997 -0.3980842238241343 -0.2878720938190367 0.20590181495844298 -0.23411709651073942 2.5 -3.0 -3.0 -3.0 1.0 0.0 0.0 0.0
0.2308881114556099 -0.205875 0.32681212395420994 -0.17237051212555382 0.04741596631571325 0.2787765887120766 2.5 -3.0 -3.0 -3.0 1.0 0.0 0.0 0.0
-0.38986908714756835 -0.20812499999999998 -0.08477074531772025 -0.4185405461184422 -0.5736153469284735 0.15339594538202625 2.5 -3.0 -3.0 -3.0 1.0 0.0 0.0 0.0
0.3437180127166016 -0.210375 -0.20025056082106266 -0.5705223866569965 -0.5460441111405977 -0.32906930793343975 2.5 -3.0 -3.0 -3.0 1.0 0.0 0.0 0.0
-0.11782372289610928 -0.21262499999999998 0.3786927246434778 0.18465224796534666 -0.5201458827767654 -0.5251130788481667 2.5 -3.0 -3.0 -3.0 1.0 0.0 0.0 0.0
-0.16840641426811304 -0.214875 -0.3577261718247026 0.5665118932483401 -0.09281652746334021 0.470914720791431 2.5 -3.0 -3.0 -3.0 1.0 0.0 0.0 0.0
0.36467916463746114 -0.21712499999999998 0.14955213557259406 -0.34017085925668317 -0.07774418465445972 -0.17035783846421393 2.5 -3.0 -3.0 -3.0 1.0 0.0 0.0 0.0
-0.3687529466383632 -0.21937500000000001 0.13563138914176348 -0.387677356758037 -0.20542417709770003 0.584154982435256 2.5 -3.0 -3.0 -3.0 1.0 0.0 0.0 0.0
0.17970891672850584 -0.221625 -0.34797566671143393 0.2967708117541434 -0.1407980649802098 -0.10885867872008212 2.5 -3.0 -3.0 -3.0 1.0 0.0 0.0 0.0
0.10220680949312431 -0.22387500000000002 0.3767409620259472 -0.2835109186139204 0.03760401431859006 0.2827642945703359 2.5 -3.0 -3.0 -3.0 1.0 0.0 0.0 0.0
-0.3287513044037965 -0.226125 -0.2080626449601234 0.22397593890072123 -0.044820197590416555 -0.5496731439406116 2.5 -3.0 -3.0 -3.0 1.0 0.0 0.0 0.0
0.3816594799146962 -0.22837500000000002 -0.06841710872467228 0.5058093677991222 -0.1092794362847207 -0.13164135958568204 2.5 -3.0 -3.0 -3.0 1.0 0.0 0.0 0.0
-0.23439948874522412 -0.230625 0.3071953597484467 -0.596267862613014 -0.4341273431017043 0.4426241010008144 2.5 -3.0 -3.0 -3.0 1.0 0.0 0.0 0.0
-0.034547311829992385 -0.23287500000000003 -0.3835045209907196 0.01672151541756359 0.27892181306721203 -0.4221985362799697 2.5 -3.0 -3.0 -3.0 1.0 0.0 0.0 0.0
0.28351554397012807 -0.235125 0.25852499047930055 -0.20393879201370066 0.4081638678454367 0.3847902254129096 2.5 -3.0 -3.0 -3.0 1.0 0.0 0.0 0.0
-0.3822987497502933 -0.23737500000000003 0.000880519370925811 -0.30384687829651125 -0.5736296300003133 0.3677603682547235 2.5 -3.0 -3.0 -3.0 1.0 0.0 0.0 0.0
0.28026567438449174 -0.239625 -0.2579360601715201 -0.397387193952694 0.34521767054507446 0.2203910758621285 2.5 -3.0 -3.0 -3.0 1.0 0.0 0.0 0.0
-0.03230458468880891 -0.24187500000000003 0.3780911241791899 -0.39802228762692693 -0.5058136275961047 0.5131793159067467 2.5 -3.0 -3.0 -3.0 1.0 0.0 0.0 0.0
-0.23069552522715261 -0.244125 -0.2994704643452643 0.11745407674007224 0.14461220766781321 -0.05098583659433555 2.5 -3.0 -3.0 -3.0 1.0 0.0 0.0 0.0
0.3709563134017758 -0.24637500000000004 0.06473617939269692 -0.4199148272132537 0.12236389553590529 -0.29703254395499556 2.5 -3.0 -3.0 -3.0 1.0 0.0 0.0 0.0
-0.31601189939945334 -0.248625 0.20204476932835896 0.3670735872210498 0.27926274576649923 -0.5672793779453859 2.5 -3.0 -3.0 -3.0 1.0 0.0 0.0 0.0
0.09615168595352659 -0.25087500000000007 -0.3609938886785958 0.5189076115740417 -0.5564207420079862 -0.4924568174031511 2.5 -3.0 -3.0 -3.0 1.0 0.0 0.0 0.0
0.17224453269103907 -0.253125 0.32978713639716994 -0.2487185269149056 -0.41902912743583187 -0.3166259005000771 2.5 -3.0 -3.0 -3.0 1.0 0.0 0.0 0.0
-0.34832729512231897 -0.25537499999999996 -0.12630005877975248 -0.17302861366613434 0.28259965854565655 -0.11434636708218675 2.5 -3.0 -3.0 -3.0 1.0 0.0 0.0 0.0
0.34071873121804086 -0.257625 -0.14156307983428598 -0.27619229432948894 -0.009224215646796496 -0.12888810025348735 2.5 -3.0 -3.0 -3.0 1.0 0.0 0.0 0.0
-0.15494396826337054 -0.25987499999999997 0.3331026134298553 -0.22708296301655162 0.4806499894400928 0.06053814115152525 2.5 -3.0 -3.0 -3.0 1.0 0.0 0.0 0.0
-0.11027375255468501 -0.262125 -0.34875519189326504 0.5727930131697206 0.32749489127212583 0.08459915714349235 2.5 -3.0 -3.0 -3.0 1.0 0.0 0.0 0.0
0.31548712277623325 -0.26437499999999997 0.18186185619137948 -0.28506409286776313 0.22421238754660644 -0.05289873723627392 2.5 -3.0 -3.0 -3.0 1.0 0.0 0.0 0.0
-0.35387129899635344 -0.266625 0.0786524832515378 0.26566525805010405 -0.11546542930672614 -0.004793956418462919 2.5 -3.0 -3.0 -3.0 1.0 0.0 0.0 0.0
0.2068498457788124 -0.268875 -0.2956676777672553 -0.5751794790650933 0.2879502027840636 -0.5588717467732431 2.5 -3.0 -3.0 -3.0 1.0 0.0 0.0 0.0
0.04697529059716896 -0.271125 0.3560681907280002 0.21687046301716756 0.0984044346455546 0.33110113378575196 2.5 -3.0 -3.0 -3.0 1.0 0.0 0.0 0.0
-0.2738489139875798 -0.273375 -0.22972348961920105 -0.25226688091510124 0.2233329781479958 -0.3514824292427542 2.5 -3.0 -3.0 -3.0 1.0 0.0 0.0 0.0
0.35537321220880774 -0.275625 -0.01551577969016375 0.035126401629397376 -0.1916635448985838 0.5741454616284154 2.5 -3.0 -3.0 -3.0 1.0 0.0 0.0 0.0
-0.2503193402977549 -0.277875 0.2502512981942287 0.5662398688551822 -0.3492363174319679 0.07924588306299522 2.5 -3.0 -3.0 -3.0 1.0 0.0 0.0 0.0
0.015457331224213538 -0.280125 -0.3518395305909001 -0.20466877694607297 0.5622458244243371 0.509431137823879 2.5 -3.0 -3.0 -3.0 1.0 0.0 0.0 0.0
0.22510904057920741 -0.282375 0.26849633000193646 0.1033750236677875 0.2641013461301925 0.21758970805088346 2.5 -3.0 -3.0 -3.0 1.0 0.0 0.0 0.0
-0.345545519688174 -0.284625 -0.04568263563357285 -0.1759732410679668 0.499633883250192 0.47934424417962834 2.5 -3.0 -3.0 -3.0 1.0 0.0 0.0 0.0
0.2841369471808736 -0.286875 -0.19866788774669517 -0.2032098426263048 0.2968738927252303 -0.5890894479906617 2.5 -3.0 -3.0 -3.0 1.0 0.0 0.0 0.0
-0.07490839385323417 -0.289125 0.3365939198876426 0.37963093267013026 0.07784321447759952 0.5427680553011403 2.5 -3.0 -3.0 -3.0 1.0 0.0 0.0 0.0
-0.17118281610924987 -0.291375 -0.2971482001357349 -0.16416831054219058 0.15085568988404482 -0.21239708219594555 2.5 -3.0 -3.0 -3.0 1.0 0.0 0.0 0.0
0.3251107811240392 -0.293625 0.10289479759403322 0.3393424576847996 0.12084359613960038 0.5849652275744271 2.5 -3.0 -3.0 -3.0 1.0 0.0 0.0 0.0
-0.3074623593536742 -0.295875 0.14291564629414139 -0.5987846482842557 -0.43108950941023744 -0.5476783414910239 2.5 -3.0 -3.0 -3.0 1.0 0.0 0.0 0.0
0.1294161240934175 -0.29812500000000003 -0.31124419866021147 -0.44898258142459857 0.5152623564837967 0.5383299594070738 2.5 -3.0 -3.0 -3.0 1.0 0.0 0.0 0.0
0.1141325998573437 -0.300375 0.31503747241368524 -0.023504958362227546 0.5360272735137553 0.3820651322260788 2.5 -3.0 -3.0 -3.0 1.0 0.0 0.0 0.0
-0.2951628533014209 -0.30262500000000003 -0.1542627609177402 0.3343412809753319 0.2967383409638352 -0.37481449779648135 2.5 -3.0 -3.0 -3.0 1.0 0.0 0.0 0.0
0.3198576473791068 -0.304875 -0.08510182012215105 0.05865271332333641 -0.09134492326938623 0.5397456571174656 2.5 -3.0 -3.0 -3.0 1.0 0.0 0.0 0.0
-0.17724308374007378 -0.30712500000000004 0.27705436946799666 -0.39139975431982027 -0.39616938772839044 0.1906341043656179 2.5 -3.0 -3.0 -3.0 1.0 0.0 0.0 0.0
-0.05609087928840366 -0.309375 -0.32193310273355513 -0.4111178525118206 -0.46793559245776706 0.00470783679600788 2.5 -3.0 -3.0 -3.0 1.0 0.0 0.0 0.0
0.2571235062456445 -0.311625 0.19818517076447983 0.3559931654640096 0.12605480597643912 0.30570476741764735 2.5 -3.0 -3.0 -3.0 1.0 0.0 0.0 0.0
-0.32129998410193406 -0.313875 0.027364294090966922 -0.2810897620493374 -0.25804460036484794 -0.08555562992217056 2.5 -3.0 -3.0 -3.0 1.0 0.0 0.0 0.0
0.21693833899925322 -0.316125 -0.23559019811368453 0.5890174611188556 0.2615019078294107 0.5355047487454779 2.5 -3.0 -3.0 -3.0 1.0 0.0 0.0 0.0
-0.0008189277742328858 -0.318375 0.3180199502111473 0.04544454688368962 0.0654718218856761 0.5881084025704607 2.5 -3.0 -3.0 -3.0 1.0 0.0 0.0 0.0
-0.21268746351191456 -0.320625 -0.23337448926536083 -0.37201406920934305 0.3391085246058975 0.34981658883429073 2.5 -3.0 -3.0 -3.0 1.0 0.0 0.0 0.0
0.3121795327768192 -0.322875 0.028207688495281658 0.4136899531417569 0.3000632510603192 -0.4136003781737435 2.5 -3.0 -3.0 -3.0 1.0 0.0 0.0 0.0
-0.24738924865803352 -0.325125 0.18865920073882878 0.19335315854600882 0.5084438215034716 0.07594218299518131 2.5 -3.0 -3.0 -3.0 1.0 0.0 0.0 0.0
0.054561126746846836 -0.327375 -0.3038892772427393 -0.16687018754365535 0.5394241783294305 0.07391838055040609 2.5 -3.0 -3.0 -3.0 1.0 0.0 0.0 0.0
0.16375789187669917 -0.329625 0.25890290114847947 -0.1060363265574098 0.13696019767353232 0.3649500199577437 2.5 -3.0 -3.0 -3.0 1.0 0.0 0.0 0.0
-0.29328267354431836 -0.33187500000000003 -0.07965084917122214 -0.3260374912636194 -0.5811695483724258 0.0349138764877706 2.5 -3.0 -3.0 -3.0 1.0 0.0 0.0 0.0
0.2678610991137939 -0.334125 -0.13824223651457002 0.5296289040909702 0.21630955512383057 0.15708960015600776 2.5 -3.0 -3.0 -3.0 1.0 0.0 0.0 0.0
-0.10326304667231136 -0.33637500000000004 0.2805148883160251 0.15337817698796788 -0.003612345285938989 0.2771031236820655 2.5 -3.0 -3.0 -3.0 1.0 0.0 0.0 0.0
-0.11237473799746783 -0.338625 -0.2742353508120361 -0.30096667195953036 0.47010511674356154 -0.27063281370572795 2.5 -3.0 -3.0 -3.0 1.0 0.0 0.0 0.0
0.26576131222298555 -0.34087500000000004 0.1252004764388571 0.5339340158528806 0.5117960520385082 -0.5064905711429665 2.5 -3.0 -3.0 -3.0 1.0 0.0 0.0 0.0
-0.27802328117613734 -0.343125 0.08641926578636551 -0.06218435850679675 0.292843541924499 -0.060415114190315575 2.5 -3.0 -3.0 -3.0 1.0 0.0 0.0 0.0
0.1452842917493019 -0.34537500000000004 -0.2492159383865801 0.010678829803698563 0.36818872520606133 0.2459905931391265 2.5 -3.0 -3.0 -3.0 1.0 0.0 0.0 0.0
0.06063861829765912 -0.347625 0.2792486657908159 0.5496050672675318 -0.4026168068603055 0.5082711434235855 2.5 -3.0 -3.0 -3.0 1.0 0.0 0.0 0.0
-0.23108959022602488 -0.34987500000000005 -0.16335570288229265 0.5135835030086072 0.1616987263686262 0.5284689927564806 2.5 -3.0 -3.0 -3.0 1.0 0.0 0.0 0.0
0.27796124055620325 -0.352125 -0.035292111348806186 -0.2967772951374957 0.4581447400843769 0.32817515155222826 2.5 -3.0 -3.0 -3.0 1.0 0.0 0.0 0.0
-0.17927745383905203 -0.35437500000000005 0.2116080195077364 0.13162679965283294 -0.49124490642232493 -0.5638387755228453 2.5 -3.0 -3.0 -3.0 1.0 0.0 0.0 0.0
-0.010633218138331459 -0.356625 -0.27423629235938607 -0.5868366054070577 -0.2993303310621883 0.31482289193181795 2.5 -3.0 -3.0 -3.0 1.0 0.0 0.0 0.0
0.19100989806984062 -0.35887500000000006 0.19293510104267983 -0.13604996112932025 0.3305360701862558 0.15077098911770973 2.5 -3.0 -3.0 -3.0 1.0 0.0 0.0 0.0
-0.2681740391202272 -0.36112500000000003 -0.013092712360044605 -0.13288572105378685 0.4561759545434906 -0.5538993127701651 2.5 -3.0 -3.0 -3.0 1.0 0.0 0.0 0.0
0.20423808166730612 -0.36337500000000006 -0.1695447297082948 -0.0416244117505872 0.3958228072713789 -0.44782382043228797 2.5 -3.0 -3.0 -3.0 1.0 0.0 0.0 0.0
-0.03565063044591589 -0.36562500000000003 0.259898810931887 0.252585073813943 -0.20626098970766202 -0.5708384657076654 2.5 -3.0 -3.0 -3.0 1.0 0.0 0.0 0.0
-0.1474707122883208 -0.36787499999999995 -0.213120560697872 -0.03153008293282693 0.02603128673440196 -0.5500964991913853 2.5 -3.0 -3.0 -3.0 1.0 0.0 0.0 0.0
0.24955804780934415 -0.37012500000000004 0.056817824215549755 0.07910322426213683 -0.18307939445059265 -0.5946081512924436 2.5 -3.0 -3.0 -3.0 1.0 0.0 0.0 0.0
-0.21954204712523148 -0.37237499999999996 0.12505258461568342 -0.3710719431881216 -0.46702719326559006 0.048746345678885916 2.5 -3.0 -3.0 -3.0 1.0 0.0 0.0 0.0
0.07638578881747703 -0.37462500000000004 -0.23732113399723126 -0.5482558043491939 0.5137590841176951 0.41407436687804705 2.5 -3.0 -3.0 -3.0 1.0 0.0 0.0 0.0
0.10255949849722246 -0.37687499999999996 0.22348777067884107 0.5343571724777473 -0.22223876065627984 0.48632086627427307 2.5 -3.0 -3.0 -3.0 1.0 0.0 0.0 0.0
-0.22337809420026988 -0.37912500000000005 -0.09416188935262144 0.5811749070240421 0.3176777211031759 -0.2699008637092998 2.5 -3.0 -3.0 -3.0 1.0 0.0 0.0 0.0
0.22496881092717577 -0.38137499999999996 -0.08026296459147693 0.20506716497658437 0.11479578448077592 -0.114956037402668 2.5 -3.0 -3.0 -3.0 1.0 0.0 0.0 0.0
-0.10997077340559021 -0.38362500000000005 0.20793818401528927 -0.2326825751826881 -0.5281821713187237 -0.449541030292249 2.5 -3.0 -3.0 -3.0 1.0 0.0 0.0 0.0
-0.058434932497503825 -0.38587499999999997 -0.2240219699918118 -0.43925261279385636 -0.022928562414827703 0.1702720616722738 2.5 -3.0 -3.0 -3.0 1.0 0.0 0.0 0.0
0.1912284161317247 -0.38812500000000005 0.12365547799734515 0.31688214293337685 -0.5439434880333338 0.38851184713490133 2.5 -3.0 -3.0 -3.0 1.0 0.0 0.0 0.0
-0.22070937775513927 -0.39037499999999997 0.03734608340829399 -0.5478345320508499 0.06593619606961472 0.2929774197696129 2.5 -3.0 -3.0 -3.0 1.0 0.0 0.0 0.0
0.13507815737087417 -0.39262500000000006 -0.17349207698419353 0.1574656461530736 0.5396144108196024 -0.18636197626459716 2.5 -3.0 -3.0 -3.0 1.0 0.0 0.0 0.0
0.017264441647275915 -0.394875 0.2151178129063417 0.10306002628504704 -0.5006411247188204 0.07175590551875843 2.5 -3.0 -3.0 -3.0 1.0 0.0 0.0 0.0
-0.15498730799903476 -0.39712500000000006 -0.14412032727624613 0.3759585612915466 -0.3580745834094231 -0.2868425995593832 2.5 -3.0 -3.0 -3.0 1.0 0.0 0.0 0.0
0.20735771186846164 -0.399375 0.0015455431653807763 0.2404867682636325 -0.2953416396767241 -0.28890543117431405 2.5 -3.0 -3.0 -3.0 1.0 0.0 0.0 0.0
-0.15068246872459456 -0.40162500000000007 0.1359858558603121 0.5226183455271618 0.5982516370117374 -0.4137618831693623 2.5 -3.0 -3.0 -3.0 1.0 0.0 0.0 0.0
0.01882321504692817 -0.403875 -0.19756181551680757 0.4801948647096004 0.06327178316848676 -0.553678629107379 2.5 -3.0 -3.0 -3.0 1.0 0.0 0.0 0.0
0.1167721456561525 -0.40612500000000007 0.15468274103421584 0.1026032582846224 0.16985958080490596 -0.5594451615574688 2.5 -3.0 -3.0 -3.0 1.0 0.0 0.0 0.0
-0.18588336029433458 -0.408375 -0.03431086913336064 0.3092303065903204 0.381360169769022 -0.5140281093756526 2.5 -3.0 -3.0 -3.0 1.0 0.0 0.0 0.0
0.15605438287834747 -0.4106250000000001 -0.0976429155620524 0.1780799280794146 -0.052143022916680555 -0.31353445518969464 2.5 -3.0 -3.0 -3.0 1.0 0.0 0.0 0.0
-0.04775123819763986 -0.412875 0.1724936335798868 -0.04959554205301884 -0.4087323482972614 -0.19960091192124438 2.5 -3.0 -3.0 -3.0 1.0 0.0 0.0 0.0
-0.07890780524365022 -0.4151250000000001 -0.15474105029574448 0.186248759641137 -0.028217332617751945 0.06710411361304999 2.5 -3.0 -3.0 -3.0 1.0 0.0 0.0 0.0
0.1575785318795911 -0.417375 0.05888221858653693 0.05213135256543637 0.384713088133967 -0.18794064221566487 2.5 -3.0 -3.0 -3.0 1.0 0.0 0.0 0.0
-0.15068866626557426 -0.4196250000000001 0.0608915859056269 0.3755545089381788 -0.504015495443511 -0.08672034495287363 2.5 -3.0 -3.0 -3.0 1.0 0.0 0.0 0.0
0.06742674733601957 -0.421875 -0.141333358124275 -0.17721586015575358 -0.05810323355370119 0.40021178464351986 2.5 -3.0 -3.0 -3.0 1.0 0.0 0.0 0.0
0.043939333648991795 -0.424125 0.14383087058584682 0.014879280585541287 0.584695975553804 0.4337528643301281 2.5 -3.0 -3.0 -3.0 1.0 0.0 0.0 0.0
-0.12395412701961381 -0.426375 -0.07307348198769127 -0.4573839056243735 -0.21973015732599874 -0.5727293981677359 2.5 -3.0 -3.0 -3.0 1.0 0.0 0.0 0.0
0.13406155698350308 -0.428625 -0.028427245982666022 0.28050410561352873 -0.5769590347597946 0.4631262177897508 2.5 -3.0 -3.0 -3.0 1.0 0.0 0.0 0.0
-0.07543822864539299 -0.430875 0.10562105866656235 -0.3679885621892854 -0.10339645166343789 -0.5255528327926223 2.5 -3.0 -3.0 -3.0 1.0 0.0 0.0 0.0
-0.014785401670781429 -0.433125 -0.12117807669885539 -0.22649413528949247 -0.1325820126086006 -0.5373228317459039 2.5 -3.0 -3.0 -3.0 1.0 0.0 0.0 0.0
0.08646191609580697 -0.435375 0.07397936496105943 0.32106078381343583 0.2536196634307031 -0.1705396510505717 2.5 -3.0 -3.0 -3.0 1.0 0.0 0.0 0.0
-0.1047461625373087 -0.437625 0.003549761781829503 0.4022310637848852 -0.5070938371876529 -0.5351923187907933 2.5 -3.0 -3.0 -3.0 1.0 0.0 0.0 0.0
0.06777992211627969 -0.439875 -0.06645198667392149 -0.17402364667527243 0.48220959860207385 0.3077612422927754 2.5 -3.0 -3.0 -3.0 1.0 0.0 0.0 0.0
-0.004495630074777999 -0.442125 0.08369751301699944 0.20678121426471638 0.07528288229488127 0.36451864648137594 2.5 -3.0 -3.0 -3.0 1.0 0.0 0.0 0.0
-0.04503741864173275 -0.444375 -0.054794984232950476 -0.1053279681742227 -0.5631737042630102 0.3628851437343603 2.5 -3.0 -3.0 -3.0 1.0 0.0 0.0 0.0
0.054462624426850695 -0.446625 0.007741570611951744 -0.37140787885232146 -0.13480938019669586 -0.17086878332818847 2.5 -3.0 -3.0 -3.0 1.0 0.0 0.0 0.0
-0.02623786395851744 -0.448875 0.01796688258697966 -0.4519612488789559 -0.1790587572335858 -0.38749574657890223 2.5 -3.0 -3.0 -3.0 1.0 0.0 0.0 0.0
